<svg xmlns="http://www.w3.org/2000/svg" width="20" height="20" viewBox="0 0 20 20" style="height: auto; width: 100%;" role="img"><path d="M18,14.425q-.159.46-.335.881a10.338,10.338,0,0,1-1.022,1.836,9.252,9.252,0,0,1-1.315,1.59,2.546,2.546,0,0,1-1.691.744,4.252,4.252,0,0,1-1.562-.372,4.471,4.471,0,0,0-1.681-.372,4.626,4.626,0,0,0-1.729.372,4.643,4.643,0,0,1-1.494.392,2.4,2.4,0,0,1-1.729-.764,9.808,9.808,0,0,1-1.376-1.646,11.379,11.379,0,0,1-1.455-2.891A10.578,10.578,0,0,1,2,10.751,6.29,6.29,0,0,1,2.826,7.46a4.846,4.846,0,0,1,1.73-1.75,4.654,4.654,0,0,1,2.339-.66A5.508,5.508,0,0,1,8.7,5.471a5.816,5.816,0,0,0,1.435.422,8.585,8.585,0,0,0,1.591-.5,5.26,5.26,0,0,1,2.163-.384,4.593,4.593,0,0,1,3.6,1.894,4,4,0,0,0-2.122,3.635,4.012,4.012,0,0,0,1.316,3.022A4.35,4.35,0,0,0,18,14.425ZM13.98.5A3.733,3.733,0,0,1,14,.883a4.055,4.055,0,0,1-1.038,2.658,3.54,3.54,0,0,1-2.94,1.451A2.95,2.95,0,0,1,10,4.632a4.163,4.163,0,0,1,1.1-2.686A4.251,4.251,0,0,1,12.443.938,4.008,4.008,0,0,1,13.98.5Z"/></svg>
