<svg xmlns="http://www.w3.org/2000/svg" width="130" height="32" viewBox="0 0 130 32" role="img" style="width:100%; height: auto;"><title>Formidable</title><polygon points="33.6 11.71 39.58 11.71 39.58 8.72 30.45 8.72 30.45 22.89 33.63 22.89 33.63 17.59 38.86 17.59 38.86 14.71 33.6 14.71 33.6 11.71" style="fill:#fff"/><path d="M44.54,12.65a5.27,5.27,0,1,0,5.28,5.26,5.13,5.13,0,0,0-5-5.261Q44.682,12.646,44.54,12.65Zm0,7.74a2.25,2.25,0,0,1-2.24-2.48,2.25,2.25,0,1,1,4.48,0,2.23,2.23,0,0,1-2.24,2.48Z" style="fill:#fff"/><path d="M53.73,14.29V13H50.79v9.93h3V18.55c0-2,1.1-2.7,2.32-2.7a4.12,4.12,0,0,1,1,.1V13a3,3,0,0,0-.8-.1A2.81,2.81,0,0,0,53.73,14.29Z" style="fill:#fff"/><path d="M69.72,12.65a3.41,3.41,0,0,0-3.08,1.56,3.07,3.07,0,0,0-2.94-1.56,3.46,3.46,0,0,0-2.86,1.44V13h-2.9v9.93h3V17.17a1.61,1.61,0,0,1,1.5-1.717q.072,0,.144,0a1.51,1.51,0,0,1,1.6,1.68v5.76h3V17.15a1.61,1.61,0,0,1,1.517-1.7q.072,0,.143,0a1.51,1.51,0,0,1,1.58,1.68v5.76H73.4V16.45a3.48,3.48,0,0,0-3.68-3.8Z" style="fill:#fff"/><rect x="74.97" y="12.95" width="3.04" height="9.93" style="fill:#fff"/><path d="M76.47,8.14a1.78,1.78,0,1,0,.02,0Z" style="fill:#fff"/><path d="M89.44,8.42h-3v5.32c-.24-.38-1-1-2.68-1a4.85,4.85,0,0,0-4.831,4.869q0,.156.011.311a4.92,4.92,0,0,0,4.611,5.211q.154.009.309.009a3.21,3.21,0,0,0,2.66-1.18,6.9,6.9,0,0,0,.08,1h2.92c0-.22-.08-.88-.08-1.78Zm-5.2,12A2.24,2.24,0,0,1,82,17.91a2.25,2.25,0,1,1,4.48,0,2.24,2.24,0,0,1-2.24,2.48Z" style="fill:#fff"/><path d="M99.44,16.49c0-2-1.18-3.84-4.4-3.84-2.92,0-4.24,1.88-4.36,3.3l2.64.54A1.6,1.6,0,0,1,95,15a1.23,1.23,0,0,1,1.444.97q.011.054.016.11a.68.68,0,0,1-.679.681H95.74l-2.34.36a3.05,3.05,0,0,0-2.94,3,3.48,3.48,0,0,0,6.24,1.62,4.77,4.77,0,0,0,.1,1.12h2.74a9.75,9.75,0,0,1-.12-1.54V16.49Zm-3,2.5a1.71,1.71,0,0,1-1.82,2,1,1,0,0,1-1.18-1,1.1,1.1,0,0,1,1.1-1.1h.02l1.88-.3v.4Z" style="fill:#fff"/><path d="M106.86,12.71A3.57,3.57,0,0,0,104,13.89V8.42h-3V22.89h2.94V21.77a3.2,3.2,0,0,0,2.8,1.34c2.78,0,4.74-2.18,4.74-5.22S109.74,12.71,106.86,12.71Zm-.66,7.68a2.26,2.26,0,0,1-2.26-2.48,2.26,2.26,0,1,1,4.5,0,2.23,2.23,0,0,1-2.24,2.48Z" style="fill:#fff"/><rect x="112.45" y="8.42" width="3.04" height="14.47" style="fill:#fff"/><path d="M126.38,17.75c0-3.2-1.9-5.1-5-5.1a5,5,0,0,0-5.006,4.994q0,.123.006.246a5.06,5.06,0,0,0,4.813,5.3q.184.009.367,0A4.46,4.46,0,0,0,126.2,20l-2.54-.72a1.92,1.92,0,0,1-2,1.3,2.15,2.15,0,0,1-2.26-1.92h6.92A6.111,6.111,0,0,0,126.38,17.75Zm-6.92-1a1.89,1.89,0,0,1,2-1.68,1.78,1.78,0,0,1,1.988,1.544q.009.068.012.136Z" style="fill:#fff"/><polygon points="10 3 4.42 25.95 10 19.19 10 3" style="fill:#fff;opacity:0.15000000596046448;isolation:isolate"/><polygon points="10 3 22.83 15 10 19.19 10 3" style="fill:#fff"/><polygon points="10 28.32 22.83 15 10 19.19 10 28.32" style="fill:#fff;opacity:0.699999988079071;isolation:isolate"/><polygon points="4.42 25.95 10 19.19 10 28.32 4.42 25.95" style="fill:#fff;opacity:0.44999998807907104;isolation:isolate"/></svg>
