<svg xmlns="http://www.w3.org/2000/svg" width="130" height="32" viewBox="0 0 99 32" role="img" style="width:100%; height:auto;"><title>Plotly</title><rect x="12.139" y="4.954" width="3.279" height="17.966" style="fill:#fff"/><rect x="16.216" y="10.069" width="3.279" height="12.852" style="fill:#fff"/><rect x="20.292" y="7.512" width="3.279" height="15.409" style="fill:#fff"/><rect x="28.445" y="20.374" width="3.279" height="2.546" style="fill:#fff"/><rect x="3.987" y="20.374" width="3.279" height="2.546" style="fill:#fff"/><rect x="24.368" y="15.222" width="3.279" height="7.699" style="fill:#fff"/><rect x="8.063" y="17.839" width="3.279" height="5.082" style="fill:#fff"/><path d="M50.11,10.8a4.519,4.519,0,0,1-1.674,3.778,7.527,7.527,0,0,1-4.743,1.313H41.067v7.021H39.881V5.915h4.161Q50.11,5.915,50.11,10.8Zm-9.044,4.068H43.4a7.081,7.081,0,0,0,4.15-.948,3.574,3.574,0,0,0,1.278-3.074,3.469,3.469,0,0,0-1.209-2.912,6.04,6.04,0,0,0-3.742-.948H41.067Z" style="fill:#fff"/><path d="M54.19,22.909H53.04V4.822h1.15Z" style="fill:#fff"/><path d="M68.4,16.574A7.156,7.156,0,0,1,66.9,21.4a5.178,5.178,0,0,1-4.138,1.738,5.367,5.367,0,0,1-2.929-.8,5.133,5.133,0,0,1-1.942-2.3,8.376,8.376,0,0,1-.673-3.463,7.112,7.112,0,0,1,1.5-4.819,5.167,5.167,0,0,1,4.115-1.726,5.069,5.069,0,0,1,4.086,1.749A7.188,7.188,0,0,1,68.4,16.574Zm-9.973,0a6.429,6.429,0,0,0,1.145,4.062,4.321,4.321,0,0,0,6.474,0,6.429,6.429,0,0,0,1.145-4.062,6.328,6.328,0,0,0-1.156-4.057,3.929,3.929,0,0,0-3.249-1.441,3.871,3.871,0,0,0-3.226,1.436A6.42,6.42,0,0,0,58.422,16.574Z" style="fill:#fff"/><path d="M75.23,22.119a8.611,8.611,0,0,0,1.906-.186v.93a6.1,6.1,0,0,1-1.929.279,3.144,3.144,0,0,1-2.471-.895,4.158,4.158,0,0,1-.8-2.814V11.274H70.069V10.6l1.872-.523.581-2.86h.593v3.057h3.708v1H73.115v8a3.645,3.645,0,0,0,.511,2.15A1.855,1.855,0,0,0,75.23,22.119Z" style="fill:#fff"/><path d="M81.019,22.909h-1.15V4.822h1.15Z" style="fill:#fff"/><path d="M84.087,10.273h1.186l2.674,7.091q1.221,3.266,1.546,4.405h.071q.488-1.5,1.592-4.476l2.674-7.021h1.186L89.352,24.955a11.41,11.41,0,0,1-1.15,2.418,3.076,3.076,0,0,1-1.087.941,3.3,3.3,0,0,1-1.5.314,5.211,5.211,0,0,1-1.477-.244v-1a5.436,5.436,0,0,0,1.453.186,1.958,1.958,0,0,0,1.047-.279,2.619,2.619,0,0,0,.819-.866,11.393,11.393,0,0,0,.848-1.86q.482-1.272.622-1.656Z" style="fill:#fff"/></svg>
